<?xml version="1.0" standalone="no"?>
<!DOCTYPE svg PUBLIC "-//W3C//DTD SVG 20010904//EN"
 "http://www.w3.org/TR/2001/REC-SVG-20010904/DTD/svg10.dtd">
<svg version="1.0" xmlns="http://www.w3.org/2000/svg"
 width="25pt" height="25pt" viewBox="0 0 64.000000 64.000000"
 preserveAspectRatio="xMidYMid meet">

<g transform="translate(0.000000,64.000000) scale(0.100000,-0.100000)"
fill="#000000" stroke="none">
<path d="M266 592 c-2 -4 0 -27 4 -52 5 -25 9 -48 10 -52 0 -5 18 -8 40 -8 37
0 39 2 45 38 14 79 12 82 -44 82 -28 0 -52 -3 -55 -8z"/>
<path d="M183 534 c-40 -26 -93 -95 -93 -121 0 -10 24 -13 96 -13 61 0 93 -4
89 -10 -3 -6 -48 -10 -101 -10 -86 0 -94 -2 -94 -19 0 -10 -7 -21 -15 -25 -22
-8 -19 -47 5 -53 12 -3 20 -14 20 -27 0 -36 46 -119 86 -157 87 -80 201 -80
288 0 40 38 86 121 86 157 0 13 8 24 20 27 24 6 27 45 5 53 -8 4 -15 15 -15
25 0 17 -8 19 -94 19 -53 0 -98 4 -101 10 -4 6 28 10 89 10 110 0 112 3 67 70
-27 40 -92 90 -117 90 -6 0 -14 -16 -17 -36 -8 -50 -23 -64 -67 -64 -44 0 -59
14 -67 64 -7 43 -16 44 -70 10z m171 -160 c31 -30 9 -84 -34 -84 -24 0 -50 26
-50 50 0 24 26 50 50 50 10 0 26 -7 34 -16z m171 -132 c-15 -82 -67 -134 -151
-153 -128 -29 -237 35 -259 153 l-7 37 212 0 212 0 -7 -37z"/>
<path d="M304 349 c-10 -17 13 -36 27 -22 12 12 4 33 -11 33 -5 0 -12 -5 -16
-11z"/>
</g>
</svg>
