<?xml version="1.0" standalone="no"?>
<!DOCTYPE svg PUBLIC "-//W3C//DTD SVG 20010904//EN"
 "http://www.w3.org/TR/2001/REC-SVG-20010904/DTD/svg10.dtd">
<svg version="1.0" xmlns="http://www.w3.org/2000/svg"
 width="25.000000pt" height="25.000000pt" viewBox="0 0 48.000000 48.000000"
 preserveAspectRatio="xMidYMid meet">

<g transform="translate(0.000000,48.000000) scale(0.100000,-0.100000)"
fill="#000000" stroke="none">
<path d="M90 405 l-23 -25 173 0 173 0 -23 25 c-23 24 -28 25 -150 25 -122 0
-127 -1 -150 -25z"/>
<path d="M40 327 c0 -28 29 -57 57 -57 25 0 53 30 53 58 0 20 -5 22 -55 22
-51 0 -55 -2 -55 -23z"/>
<path d="M180 330 c0 -11 9 -29 20 -40 11 -11 29 -20 40 -20 26 0 60 34 60 60
0 18 -7 20 -60 20 -53 0 -60 -2 -60 -20z"/>
<path d="M330 327 c0 -28 29 -57 57 -57 25 0 53 30 53 58 0 20 -5 22 -55 22
-51 0 -55 -2 -55 -23z"/>
<path d="M136 254 c-15 -9 -39 -14 -52 -11 l-24 4 0 -103 0 -104 30 0 30 0 0
80 0 80 50 0 50 0 0 -80 0 -80 100 0 100 0 0 104 0 103 -24 -4 c-13 -3 -38 2
-55 11 -28 15 -34 15 -53 1 -28 -19 -68 -19 -94 0 -23 18 -23 18 -58 -1z m224
-99 l0 -45 -45 0 -45 0 0 45 0 45 45 0 45 0 0 -45z"/>
</g>
</svg>
